<svg width="25" height="24" viewBox="0 0 25 24" fill="none" xmlns="http://www.w3.org/2000/svg">
<path d="M9.92633 3.42188H5.94477C5.08967 3.42188 4.39648 4.11506 4.39648 4.97016V8.95172C4.39648 9.80681 5.08967 10.5 5.94477 10.5H9.92633C10.7814 10.5 11.4746 9.80681 11.4746 8.95172V4.97016C11.4746 4.11506 10.7814 3.42188 9.92633 3.42188Z" stroke="black" stroke-linecap="round" stroke-linejoin="round"/>
<path d="M20.0045 3.42188H16.0229C15.1678 3.42188 14.4746 4.11506 14.4746 4.97016V8.95172C14.4746 9.80681 15.1678 10.5 16.0229 10.5H20.0045C20.8595 10.5 21.5527 9.80681 21.5527 8.95172V4.97016C21.5527 4.11506 20.8595 3.42188 20.0045 3.42188Z" stroke="black" stroke-linecap="round" stroke-linejoin="round"/>
<path d="M9.92633 13.5H5.94477C5.08967 13.5 4.39648 14.1932 4.39648 15.0483V19.0298C4.39648 19.8849 5.08967 20.5781 5.94477 20.5781H9.92633C10.7814 20.5781 11.4746 19.8849 11.4746 19.0298V15.0483C11.4746 14.1932 10.7814 13.5 9.92633 13.5Z" stroke="black" stroke-linecap="round" stroke-linejoin="round"/>
<path d="M20.0045 13.5H16.0229C15.1678 13.5 14.4746 14.1932 14.4746 15.0483V19.0298C14.4746 19.8849 15.1678 20.5781 16.0229 20.5781H20.0045C20.8595 20.5781 21.5527 19.8849 21.5527 19.0298V15.0483C21.5527 14.1932 20.8595 13.5 20.0045 13.5Z" stroke="black" stroke-linecap="round" stroke-linejoin="round"/>
</svg>
