<?xml version="1.0" standalone="no"?>
<!DOCTYPE svg PUBLIC "-//W3C//DTD SVG 20010904//EN"
 "http://www.w3.org/TR/2001/REC-SVG-20010904/DTD/svg10.dtd">
<svg version="1.0" xmlns="http://www.w3.org/2000/svg"
 width="225.000000pt" height="225.000000pt" viewBox="0 0 225.000000 225.000000"
 preserveAspectRatio="xMidYMid meet">
<metadata>
Created by potrace 1.10, written by Peter Selinger 2001-2011
</metadata>
<g transform="translate(0.000000,225.000000) scale(0.100000,-0.100000)"
fill="#000000" stroke="none">
<path d="M845 1944 c-82 -25 -179 -53 -215 -64 -116 -35 -180 -113 -180 -221
0 -35 15 -108 43 -203 l43 -148 -61 -61 c-67 -67 -109 -145 -125 -228 -20
-104 13 -192 105 -285 117 -118 294 -181 536 -191 93 -4 138 -2 143 5 8 14
-27 19 -159 26 -96 5 -235 28 -259 43 -6 4 -14 8 -18 9 -5 1 -11 3 -15 4 -5 1
-12 3 -18 4 -13 2 -107 48 -123 61 -22 17 -92 85 -87 85 2 0 -7 11 -20 24 -13
13 -27 36 -31 50 -3 14 -10 26 -16 26 -5 0 -6 4 -3 10 3 5 1 19 -6 31 -6 12
-7 19 -1 15 6 -4 7 6 2 27 -4 18 -2 44 3 57 6 14 11 30 11 35 3 24 28 85 36
85 4 0 11 11 14 25 4 14 13 25 20 25 8 0 17 12 20 26 6 22 9 24 23 12 12 -9
15 -9 9 0 -4 7 -2 12 5 12 7 0 9 3 6 7 -9 8 13 34 23 28 14 -9 18 44 5 69 -8
15 -9 29 -3 40 6 10 5 16 -2 16 -5 0 -10 7 -10 15 0 9 -7 29 -15 44 -8 16 -16
39 -18 52 -3 13 -10 44 -17 68 -31 115 19 221 125 266 54 23 67 24 84 11 11
-8 13 -8 8 0 -10 16 18 25 33 11 10 -9 11 -9 6 0 -5 10 14 22 44 28 3 1 32 9
65 19 33 10 65 19 72 20 7 1 16 5 19 9 4 4 14 1 22 -6 13 -10 14 -9 7 2 -6 11
-3 13 13 9 12 -4 20 -3 17 2 -3 4 2 11 11 14 8 3 12 2 9 -4 -3 -6 1 -10 10
-10 9 0 13 4 10 10 -4 7 2 7 18 1 14 -6 28 -7 31 -4 3 4 6 1 6 -5 0 -6 6 -9
14 -6 16 6 124 -92 113 -102 -4 -4 1 -16 10 -27 13 -15 14 -18 3 -12 -12 7
-13 6 -3 -7 7 -8 10 -18 6 -21 -3 -4 -2 -7 4 -7 9 0 38 -105 31 -113 -2 -2 4
-12 12 -22 11 -14 11 -17 1 -11 -8 6 -7 -1 4 -18 10 -15 15 -29 11 -33 -3 -3
0 -13 6 -21 7 -8 13 -19 14 -26 6 -40 28 -101 40 -113 8 -8 12 -18 9 -23 -9
-15 15 -22 30 -10 12 10 15 10 15 0 0 -6 6 -10 13 -7 6 2 31 -4 55 -14 23 -10
42 -15 42 -12 0 4 5 2 12 -5 7 -7 20 -12 30 -12 10 0 22 -8 26 -17 4 -10 14
-19 22 -21 42 -10 81 -36 75 -51 -5 -12 -3 -13 5 -5 8 8 21 1 48 -26 59 -59
64 -66 42 -66 -10 0 -16 5 -12 11 3 5 -2 4 -11 -4 -22 -18 -268 -12 -274 6 -9
26 -39 53 -65 57 -16 3 -28 0 -28 -5 0 -6 -5 -7 -10 -4 -6 4 -9 3 -8 -2 4 -13
-23 -73 -34 -73 -5 0 -6 -5 -3 -10 3 -5 -2 -10 -12 -10 -14 0 -15 -2 -5 -9 10
-6 9 -10 -7 -14 -12 -3 -21 -12 -21 -21 0 -9 -4 -16 -8 -16 -5 0 -23 -13 -41
-29 -22 -20 -30 -34 -25 -43 5 -9 2 -8 -11 2 -12 10 -16 10 -11 2 4 -7 1 -28
-8 -46 -28 -60 -20 -215 14 -239 17 -12 20 -17 20 -39 0 -9 3 -9 9 1 5 8 19
12 35 9 14 -3 23 -1 20 3 -5 8 1 10 39 13 6 1 14 3 17 6 3 3 20 13 38 23 18
10 44 29 59 43 14 13 31 21 37 17 6 -3 8 -3 4 1 -4 5 4 20 17 34 23 25 26 26
172 26 146 1 148 1 151 -21 2 -13 -2 -23 -8 -23 -6 0 -9 -4 -6 -9 8 -12 -19
-33 -29 -23 -5 4 -6 3 -3 -3 3 -5 -8 -22 -23 -37 -16 -15 -29 -23 -29 -17 0 6
-7 3 -16 -6 -25 -24 -76 -48 -107 -50 -16 -1 -32 -7 -36 -14 -5 -7 -11 -12
-15 -12 -3 1 -7 1 -8 0 -19 -5 -52 -11 -152 -27 -83 -13 -123 -24 -131 -35 -7
-10 -19 -17 -28 -17 -10 0 -14 -6 -11 -15 4 -8 10 -13 15 -10 4 3 13 -13 19
-35 6 -22 15 -40 20 -40 5 0 6 -7 3 -17 -4 -11 -3 -14 5 -9 14 8 15 -3 3 -23
-5 -7 -15 -11 -22 -9 -8 3 -22 -2 -32 -10 -22 -19 -46 -8 -58 26 -6 15 -5 21
1 17 6 -3 10 -1 10 4 0 6 -4 11 -10 11 -5 0 -10 5 -10 11 0 5 5 7 10 4 6 -3
10 -1 10 4 0 6 -4 11 -9 11 -5 0 -8 11 -6 25 1 14 -2 25 -8 25 -6 0 -6 5 1 13
8 9 4 12 -15 14 -23 1 -25 -1 -18 -30 3 -18 10 -59 15 -92 8 -61 18 -95 27
-95 15 0 149 43 157 50 5 5 -4 36 -21 72 -51 105 -51 108 -5 108 67 0 224 31
306 61 149 54 238 132 270 237 l7 22 -189 0 -190 0 -37 -46 c-46 -56 -101 -92
-179 -116 -32 -10 -60 -17 -61 -16 -2 2 -10 29 -19 61 -14 47 -15 69 -7 113
13 70 13 70 98 158 51 53 77 89 90 125 10 28 21 51 25 51 3 0 19 -20 35 -45
l28 -44 193 -1 c125 0 192 4 192 10 0 21 -157 166 -218 202 -35 20 -102 48
-150 63 -48 15 -94 30 -102 34 -9 5 -39 91 -76 217 -67 234 -78 260 -129 302
-80 65 -148 66 -350 6z"/>
<path d="M934 1599 c-11 -3 -22 -5 -26 -3 -4 3 -9 0 -13 -5 -3 -6 -11 -8 -18
-5 -7 2 -33 -15 -59 -40 -26 -24 -49 -42 -52 -39 -2 3 -3 -6 -2 -20 2 -18 -1
-24 -11 -20 -9 3 -11 0 -7 -10 3 -8 0 -18 -7 -23 -8 -5 -10 -3 -4 6 5 9 4 11
-4 6 -7 -5 -9 -12 -3 -19 10 -15 10 -127 -1 -144 -6 -9 -3 -11 9 -6 11 4 15 2
11 -4 -4 -6 0 -14 9 -17 9 -3 14 -12 12 -18 -3 -7 10 -25 28 -39 19 -15 30
-30 26 -34 -4 -5 -2 -5 5 -1 6 3 18 -2 25 -13 8 -12 34 -23 65 -29 73 -13 181
7 166 31 -3 6 -1 7 6 3 10 -7 94 65 97 83 0 3 6 20 13 36 22 52 24 91 7 149
-9 31 -14 61 -11 67 4 5 3 8 -2 7 -13 -4 -83 64 -77 74 3 4 -3 5 -12 1 -11 -4
-15 -3 -11 4 5 7 -1 9 -15 5 -14 -3 -19 -1 -14 6 5 8 1 10 -10 5 -10 -3 -15
-2 -12 3 7 11 -81 13 -108 3z m135 -49 c87 -44 134 -145 111 -238 -32 -136
-183 -204 -308 -140 -93 47 -137 169 -96 266 19 46 69 100 109 118 46 20 139
17 184 -6z"/>
<path d="M1007 1523 c-12 -11 14 -33 39 -33 26 0 30 10 12 28 -13 13 -41 16
-51 5z"/>
<path d="M870 1475 c-15 -18 -6 -45 14 -45 21 0 46 28 40 45 -8 19 -38 19 -54
0z"/>
<path d="M1084 1386 c-10 -26 4 -48 28 -44 17 2 23 10 23 28 0 18 -6 26 -23
28 -13 2 -25 -3 -28 -12z"/>
<path d="M822 1333 c4 -33 41 -45 52 -17 8 21 -11 44 -36 44 -15 0 -19 -6 -16
-27z"/>
<path d="M963 1323 c-18 -7 -16 -50 2 -57 24 -9 45 4 45 29 0 18 -22 40 -33
34 -1 0 -8 -3 -14 -6z"/>
<path d="M830 1225 c0 -12 28 -35 44 -35 14 0 4 30 -13 40 -26 13 -31 13 -31
-5z"/>
<path d="M1069 1221 c-13 -11 -21 -23 -17 -27 12 -11 58 13 58 31 0 20 -13 19
-41 -4z"/>
<path d="M660 1001 c0 -5 7 -14 15 -21 8 -7 15 -9 15 -5 0 4 9 -4 20 -17 23
-30 71 -51 155 -68 78 -16 128 -42 159 -83 24 -32 56 -97 56 -115 0 -20 -160
17 -230 53 -79 41 -150 132 -150 195 0 31 -17 23 -22 -11 -5 -34 37 -125 66
-141 9 -5 14 -13 11 -19 -4 -5 -1 -9 5 -9 6 0 32 -14 56 -31 25 -17 51 -32 59
-33 7 -1 19 -7 27 -13 8 -7 19 -8 27 -3 9 5 26 1 46 -10 19 -11 37 -15 46 -10
8 5 21 5 29 0 10 -6 21 -1 36 16 14 15 30 22 41 19 10 -3 8 -1 -4 6 -20 11
-28 27 -24 52 0 4 -4 7 -10 7 -6 0 -9 9 -6 20 3 11 2 18 -2 15 -4 -2 -20 13
-36 33 -26 35 -106 82 -139 82 -25 0 -46 12 -40 22 4 6 -1 6 -13 -1 -11 -6
-24 -7 -28 -3 -3 4 -12 7 -18 7 -7 1 -11 7 -9 15 3 11 0 11 -12 1 -13 -11 -17
-11 -21 1 -3 7 -15 14 -27 15 -11 1 -30 11 -42 22 -24 22 -36 26 -36 12z"/>
</g>
</svg>
