<svg width="22" height="18" viewBox="0 0 22 18" fill="#000000" xmlns="http://www.w3.org/2000/svg">
<path d="M15.3743 12.6003L15.0208 12.9538L15.3743 12.6003ZM6.57477 12.6003L6.22121 12.2467L6.57477 12.6003ZM5.99438 13.2699L6.39457 13.5696L5.99438 13.2699ZM8.75232 17.0001V17.5001V17.0001ZM15.9547 13.2699L15.5545 13.5696L15.9547 13.2699ZM13.1968 17.0001V16.5001V17.0001ZM20.853 10.0779L21.2532 9.77815L20.853 10.0779ZM18.0951 7.99623L17.7945 7.59672C17.6491 7.70611 17.5746 7.88583 17.6 8.06598C17.6254 8.24613 17.7466 8.39828 17.9165 8.46325L18.0951 7.99623ZM19.0744 13.1575C18.811 13.2404 18.6646 13.5211 18.7475 13.7845C18.8304 14.0479 19.1111 14.1943 19.3745 14.1114L19.0744 13.1575ZM14.6208 0.64955C14.3541 0.721021 14.1958 0.99519 14.2673 1.26192C14.3388 1.52866 14.6129 1.68695 14.8797 1.61548L14.6208 0.64955ZM19.2526 3.18526L18.8032 3.4043L19.2526 3.18526ZM1.09574 10.0779L0.695552 9.77815H0.695552L1.09574 10.0779ZM3.85367 7.99623L4.03225 8.46325C4.20218 8.39828 4.32341 8.24613 4.34878 8.06598C4.37416 7.88583 4.29968 7.70611 4.15432 7.59672L3.85367 7.99623ZM2.5743 14.1114C2.83772 14.1943 3.11844 14.0479 3.2013 13.7845C3.28416 13.5211 3.13779 13.2404 2.87438 13.1575L2.5743 14.1114ZM7.06913 1.61548C7.33587 1.68695 7.61003 1.52866 7.68151 1.26192C7.75298 0.99519 7.59469 0.721021 7.32795 0.64955L7.06913 1.61548ZM4.57875 1.35042L4.37133 0.895471V0.895471L4.57875 1.35042ZM2.69616 3.18526L3.14562 3.4043L2.69616 3.18526ZM16.3549 12.9701C16.1644 12.7158 15.9551 12.474 15.7279 12.2467L15.0208 12.9538C15.2142 13.1473 15.3924 13.3532 15.5545 13.5696L16.3549 12.9701ZM15.7279 12.2467C14.4672 10.9861 12.7574 10.2778 10.9745 10.2778V11.2778C12.4922 11.2778 13.9476 11.8807 15.0208 12.9538L15.7279 12.2467ZM10.9745 10.2778C9.1917 10.2778 7.48187 10.9861 6.22121 12.2467L6.92832 12.9538C8.00144 11.8807 9.45691 11.2778 10.9745 11.2778V10.2778ZM6.22121 12.2467C5.99397 12.474 5.78465 12.7158 5.5942 12.9701L6.39457 13.5696C6.55667 13.3532 6.73484 13.1473 6.92832 12.9538L6.22121 12.2467ZM8.75232 17.5001H13.1968V16.5001H8.75232V17.5001ZM5.5942 12.9701C5.19933 13.4973 5.02573 14.0656 5.05669 14.6262C5.08735 15.1815 5.31633 15.6906 5.66043 16.1136C6.34222 16.9516 7.51037 17.5001 8.75232 17.5001V16.5001C7.78513 16.5001 6.91212 16.0675 6.43613 15.4825C6.20134 15.1939 6.07227 14.8809 6.05516 14.5711C6.03835 14.2665 6.12724 13.9265 6.39457 13.5696L5.5942 12.9701ZM15.5545 13.5696C15.8218 13.9265 15.9107 14.2665 15.8939 14.5711C15.8768 14.8809 15.7477 15.1939 15.513 15.4825C15.037 16.0675 14.164 16.5001 13.1968 16.5001V17.5001C14.4387 17.5001 15.6069 16.9516 16.2887 16.1136C16.6328 15.6906 16.8617 15.1815 16.8924 14.6262C16.9234 14.0656 16.7498 13.4973 16.3549 12.9701L15.5545 13.5696ZM14.3634 6.88889C14.3634 8.76053 12.8462 10.2778 10.9745 10.2778V11.2778C13.3985 11.2778 15.3634 9.31279 15.3634 6.88889H14.3634ZM10.9745 10.2778C9.10292 10.2778 7.58563 8.76053 7.58563 6.88889H6.58563C6.58563 9.3128 8.55062 11.2778 10.9745 11.2778V10.2778ZM7.58563 6.88889C7.58563 5.01726 9.10289 3.5 10.9745 3.5V2.5C8.5506 2.5 6.58563 4.46497 6.58563 6.88889H7.58563ZM10.9745 3.5C12.8462 3.5 14.3634 5.01726 14.3634 6.88889H15.3634C15.3634 4.46497 13.3984 2.5 10.9745 2.5V3.5ZM21.2532 9.77815C21.0628 9.52388 20.8535 9.28201 20.6262 9.05477L19.9191 9.76188C20.1126 9.95535 20.2908 10.1612 20.4529 10.3777L21.2532 9.77815ZM20.6262 9.05477C19.9515 8.38003 19.1481 7.86354 18.2737 7.52921L17.9165 8.46325C18.6609 8.74787 19.3448 9.18752 19.9191 9.76188L20.6262 9.05477ZM20.4529 10.3777C20.8793 10.9469 20.8712 11.4992 20.6212 11.9749C20.3566 12.4785 19.7968 12.9303 19.0744 13.1575L19.3745 14.1114C20.2965 13.8214 21.0956 13.2219 21.5064 12.4401C21.9319 11.6303 21.916 10.663 21.2532 9.77815L20.4529 10.3777ZM14.8797 1.61548C15.6396 1.41185 16.4467 1.47898 17.1626 1.80536L17.5775 0.895471C16.6503 0.472777 15.605 0.385832 14.6208 0.64955L14.8797 1.61548ZM17.1626 1.80536C17.8785 2.13175 18.4585 2.69705 18.8032 3.4043L19.7021 2.96622C19.2557 2.05027 18.5046 1.31817 17.5775 0.895471L17.1626 1.80536ZM18.8032 3.4043C19.1478 4.11155 19.2357 4.9167 19.0516 5.68163L20.0239 5.91556C20.2622 4.9249 20.1485 3.88218 19.7021 2.96622L18.8032 3.4043ZM19.0516 5.68163C18.8676 6.44657 18.4231 7.12364 17.7945 7.59672L18.3958 8.39575C19.2099 7.78307 19.7855 6.90622 20.0239 5.91556L19.0516 5.68163ZM1.49592 10.3777C1.65803 10.1612 1.8362 9.95535 2.02968 9.76188L1.32257 9.05477C1.09532 9.28201 0.886009 9.52388 0.695552 9.77815L1.49592 10.3777ZM2.02968 9.76188C2.60403 9.18752 3.2879 8.74787 4.03225 8.46325L3.6751 7.52921C2.80073 7.86354 1.9973 8.38003 1.32257 9.05477L2.02968 9.76188ZM0.695552 9.77815C0.0328048 10.663 0.0168478 11.6303 0.442365 12.4401C0.853218 13.2219 1.65231 13.8214 2.5743 14.1114L2.87438 13.1575C2.15201 12.9303 1.59223 12.4785 1.32758 11.9749C1.0776 11.4992 1.06952 10.9469 1.49592 10.3777L0.695552 9.77815ZM7.32795 0.64955C6.34374 0.385832 5.29844 0.472777 4.37133 0.895471L4.78617 1.80536C5.50204 1.47898 6.30917 1.41185 7.06913 1.61548L7.32795 0.64955ZM4.37133 0.895471C3.44421 1.31817 2.69305 2.05027 2.24669 2.96622L3.14562 3.4043C3.49029 2.69705 4.07029 2.13175 4.78617 1.80536L4.37133 0.895471ZM2.24669 2.96622C1.80032 3.88218 1.68655 4.9249 1.92491 5.91556L2.89716 5.68163C2.71312 4.9167 2.80096 4.11155 3.14562 3.4043L2.24669 2.96622ZM1.92491 5.91556C2.16326 6.90622 2.73887 7.78307 3.55303 8.39575L4.15432 7.59672C3.52567 7.12364 3.0812 6.44657 2.89716 5.68163L1.92491 5.91556Z" fill="black"/>
</svg>
