<svg width="20" height="18" viewBox="0 0 20 18" fill="none" xmlns="http://www.w3.org/2000/svg">
<path d="M9.17383 13L5.17383 9M5.17383 9L9.17383 5M5.17383 9H19.1738M14.1738 13V14C14.1738 14.7956 13.8578 15.5587 13.2951 16.1213C12.7325 16.6839 11.9695 17 11.1738 17H4.17383C3.37818 17 2.61512 16.6839 2.05251 16.1213C1.4899 15.5587 1.17383 14.7956 1.17383 14V4C1.17383 3.20435 1.4899 2.44129 2.05251 1.87868C2.61512 1.31607 3.37818 1 4.17383 1H11.1738C11.9695 1 12.7325 1.31607 13.2951 1.87868C13.8578 2.44129 14.1738 3.20435 14.1738 4V5" stroke="#FF0000" stroke-linecap="round" stroke-linejoin="round"/>
</svg>
